Coordinates
version=1
nRows=8
nColumns=46
inDegrees=yes

Units are S.I. units (second, meters, Newtons, ...)
Angles are in degrees.

endheader
time	pelvis_tilt	pelvis_list	pelvis_rotation	pelvis_tx	pelvis_ty	pelvis_tz	bb_angle	bb_tx	bb_ty	bb_tz	hip_flexion_r	hip_adduction_r	hip_rotation_r	knee_angle_r	knee_angle_r_beta	ankle_angle_r	subtalar_angle_r	mtp_angle_r	crank_angle_r	hip_flexion_l	hip_adduction_l	hip_rotation_l	knee_angle_l	knee_angle_l_beta	ankle_angle_l	subtalar_angle_l	mtp_angle_l	crank_angle_l	lumbar_extension	lumbar_bending	lumbar_rotation	arm_flex_r	arm_add_r	arm_rot_r	elbow_flex_r	pro_sup_r	wrist_flex_r	wrist_dev_r	arm_flex_l	arm_add_l	arm_rot_l	elbow_flex_l	pro_sup_l	wrist_flex_l	wrist_dev_l
      5.00000000	    -13.20134106	      4.60560572	      3.11182651	      0.17862545	      1.13251041	     -0.21595729	      0.00000000	      0.50000000	      0.00000000	      0.25000000	     37.57985044	     -6.70773853	      6.79733615	     24.55669510	      0.42859518	     -3.72642971	    -11.66674290	      0.00000000	      0.00000000	     69.26402208	      6.01429830	      8.00881155	    104.77654461	      1.82869568	      2.19228250	    -10.01441577	      0.00000000	      0.00000000	    -65.94679240	     -6.17217063	    -15.69356150	     82.55822601	    -11.69445519	     33.09922396	     57.77550919	     46.57888259	      0.00000000	      0.00000000	     87.53881941	    -29.01483117	     36.37515667	     70.28751863	     49.59729485	      0.00000000	      0.00000000
      5.00500000	    -13.80542888	      5.03057430	      3.76970978	      0.17885513	      1.13227005	     -0.21492701	      0.00000000	      0.50000000	      0.00000000	      0.25000000	     36.65749199	     -7.57090545	      5.99687401	     22.68241345	      0.39588280	     -4.88543308	    -10.60030259	      0.00000000	      0.00000000	     71.11808488	      6.60786430	      7.78591746	    105.70078831	      1.84482678	      2.79125834	     -9.93705273	      0.00000000	      0.00000000	    -65.45320023	     -6.55420700	    -16.67959520	     82.10419120	    -11.66456751	     33.02323685	     57.43421187	     46.54054942	      0.00000000	      0.00000000	     87.75004941	    -28.74016753	     36.53702169	     70.36394585	     49.60704470	      0.00000000	      0.00000000
      5.01000000	    -14.21185426	      5.39057993	      4.64276241	      0.17929003	      1.13256830	     -0.21424254	      0.00000000	      0.50000000	      0.00000000	      0.25000000	     35.42418652	     -8.51818306	      4.72737780	     20.76701802	      0.36245284	     -6.02109069	     -9.39030642	      0.00000000	      0.00000000	     72.76234321	      7.23802326	      7.65759249	    106.48129567	      1.85844920	      3.40926538	     -9.18293399	      0.00000000	      0.00000000	    -65.06049242	     -6.62875426	    -18.03677256	     81.53121480	    -10.21843604	     31.73636519	     56.00904563	     46.46262025	      0.00000000	      0.00000000	     87.98707701	    -29.11288999	     37.36616294	     70.09173104	     49.43229149	      0.00000000	      0.00000000
      5.01500000	    -14.76376025	      5.71198686	      5.17133046	      0.17945880	      1.13258655	     -0.21311037	      0.00000000	      0.50000000	      0.00000000	      0.25000000	     34.50936336	     -9.17629634	      3.79703311	     19.05649953	      0.33259866	     -7.14670139	     -8.27308149	      0.00000000	      0.00000000	     74.63230400	      7.27456853	      7.24493831	    107.16868384	      1.87044639	      3.80495669	     -8.59813367	      0.00000000	      0.00000000	    -64.65590911	     -7.01854412	    -18.89152300	     81.11022472	    -10.27309304	     31.80972029	     55.80410870	     46.46423648	      0.00000000	      0.00000000	     88.19023433	    -28.81597782	     37.46807518	     70.15961317	     49.43080967	      0.00000000	      0.00000000
      5.02000000	    -15.14556082	      5.86580643	      5.81395588	      0.17986392	      1.13290107	     -0.21232344	      0.00000000	      0.50000000	      0.00000000	      0.25000000	     33.37291474	     -9.74274838	      2.48062648	     17.39909155	      0.30367143	     -8.17039648	     -7.15043485	      0.00000000	      0.00000000	     76.22672970	      7.50745372	      7.22679798	    107.74834941	      1.88056346	      4.51367979	     -7.29855352	      0.00000000	      0.00000000	    -64.33298340	     -7.16301102	    -19.61313558	     80.68100460	    -10.08142740	     31.73686877	     55.44337283	     46.47859373	      0.00000000	      0.00000000	     88.27172301	    -28.62251340	     37.92742535	     69.81669270	     49.35226003	      0.00000000	      0.00000000
      5.02500000	    -15.65494945	      6.13725737	      6.25339123	      0.18005948	      1.13315656	     -0.21130349	      0.00000000	      0.50000000	      0.00000000	      0.25000000	     32.58290191	    -10.26445530	      1.44095213	     16.07578775	      0.28057543	     -9.15950512	     -6.17204694	      0.00000000	      0.00000000	     77.92731838	      7.46093624	      6.82077816	    108.07817390	      1.88631998	      4.61748111	     -6.75531182	      0.00000000	      0.00000000	    -64.00530344	     -7.59230020	    -20.31369017	     80.33388214	    -10.11103794	     31.77143645	     55.20336448	     46.46837826	      0.00000000	      0.00000000	     88.44983647	    -28.27741589	     38.10902467	     69.85653446	     49.35068840	      0.00000000	      0.00000000
      5.03000000	    -16.22654678	      6.20621314	      6.61606027	      0.18046173	      1.13316655	     -0.21006419	      0.00000000	      0.50000000	      0.00000000	      0.25000000	     31.92552167	    -10.51337434	      0.48737771	     14.89171446	      0.25990945	    -10.04420950	     -5.24617074	      0.00000000	      0.00000000	     79.63150509	      7.27712833	      6.68256906	    108.31166435	      1.89039516	      4.78949155	     -6.04018297	      0.00000000	      0.00000000	    -63.51940123	     -7.97981787	    -20.81308756	     79.92342975	    -10.11290941	     31.81018118	     54.94485554	     46.45648294	      0.00000000	      0.00000000	     88.51246082	    -27.98153235	     38.37435475	     69.82016003	     49.34478015	      0.00000000	      0.00000000
      5.03500000	    -16.68190038	      6.15770017	      7.02699325	      0.18077269	      1.13323361	     -0.20933589	      0.00000000	      0.50000000	      0.00000000	      0.25000000	     31.34309434	    -10.68649580	     -0.84775468	     14.17710849	      0.24743722	    -10.54256402	     -4.38195517	      0.00000000	      0.00000000	     81.18854757	      7.13129222	      6.66568672	    108.46187679	      1.89301686	      5.29210911	     -4.72212843	      0.00000000	      0.00000000	    -63.04218078	     -8.17621392	    -20.97952589	     79.56848989	    -10.08480568	     31.62518729	     54.40608366	     46.44343663	      0.00000000	      0.00000000	     88.61681516	    -27.58983385	     39.14695858	     69.28976790	     49.22878964	      0.00000000	      0.00000000
